<svg width="150" height="37" viewBox="0 0 150 37" fill="none" xmlns="http://www.w3.org/2000/svg">
<path d="M47.342 25.1572C47.2087 25.1572 47.0953 25.1106 47.002 25.0172C46.9087 24.9239 46.862 24.8106 46.862 24.6772V11.6372C46.862 11.4906 46.9087 11.3772 47.002 11.2972C47.0953 11.2039 47.2087 11.1572 47.342 11.1572H49.202C49.3487 11.1572 49.462 11.2039 49.542 11.2972C49.6353 11.3772 49.682 11.4906 49.682 11.6372V22.7772H56.022C56.1687 22.7772 56.2887 22.8239 56.382 22.9172C56.4753 23.0106 56.522 23.1306 56.522 23.2772V24.6772C56.522 24.8239 56.4753 24.9439 56.382 25.0372C56.2887 25.1172 56.1687 25.1572 56.022 25.1572H47.342ZM61.2436 25.3572C60.5636 25.3572 59.9369 25.2239 59.3636 24.9572C58.8036 24.6772 58.3569 24.3039 58.0236 23.8372C57.7036 23.3706 57.5436 22.8572 57.5436 22.2972C57.5436 21.3906 57.9102 20.6572 58.6436 20.0972C59.3769 19.5372 60.3836 19.1572 61.6636 18.9572L64.4036 18.5572V18.1372C64.4036 17.5506 64.2569 17.1106 63.9636 16.8172C63.6702 16.5239 63.1969 16.3772 62.5436 16.3772C62.1036 16.3772 61.7436 16.4639 61.4636 16.6372C61.1969 16.7972 60.9836 16.9572 60.8236 17.1172C60.6636 17.2906 60.5569 17.4039 60.5036 17.4572C60.4502 17.6172 60.3502 17.6972 60.2036 17.6972H58.6636C58.5436 17.6972 58.4369 17.6572 58.3436 17.5772C58.2636 17.4972 58.2236 17.3906 58.2236 17.2572C58.2369 16.9239 58.3969 16.5439 58.7036 16.1172C59.0236 15.6906 59.5102 15.3239 60.1636 15.0172C60.8169 14.7106 61.6169 14.5572 62.5636 14.5572C64.1369 14.5572 65.2836 14.9106 66.0036 15.6172C66.7236 16.3239 67.0836 17.2506 67.0836 18.3972V24.6772C67.0836 24.8106 67.0369 24.9239 66.9436 25.0172C66.8636 25.1106 66.7502 25.1572 66.6036 25.1572H64.9836C64.8502 25.1572 64.7369 25.1106 64.6436 25.0172C64.5502 24.9239 64.5036 24.8106 64.5036 24.6772V23.8972C64.2102 24.3239 63.7902 24.6772 63.2436 24.9572C62.7102 25.2239 62.0436 25.3572 61.2436 25.3572ZM61.9236 23.4572C62.6569 23.4572 63.2569 23.2172 63.7236 22.7372C64.1902 22.2572 64.4236 21.5572 64.4236 20.6372V20.2172L62.4236 20.5372C61.6502 20.6572 61.0636 20.8506 60.6636 21.1172C60.2769 21.3839 60.0836 21.7106 60.0836 22.0972C60.0836 22.5239 60.2636 22.8572 60.6236 23.0972C60.9836 23.3372 61.4169 23.4572 61.9236 23.4572ZM73.5893 25.3572C72.5893 25.3572 71.7493 25.2106 71.0693 24.9172C70.3893 24.6106 69.8827 24.2572 69.5493 23.8572C69.2293 23.4439 69.0693 23.0906 69.0693 22.7972C69.0693 22.6639 69.116 22.5572 69.2093 22.4772C69.3027 22.3972 69.4093 22.3572 69.5293 22.3572H71.1093C71.2293 22.3572 71.3293 22.4039 71.4093 22.4972C71.4627 22.5372 71.6027 22.6572 71.8293 22.8572C72.056 23.0706 72.3227 23.2372 72.6293 23.3572C72.936 23.4772 73.276 23.5372 73.6493 23.5372C74.1827 23.5372 74.6227 23.4306 74.9693 23.2172C75.316 23.0039 75.4893 22.7106 75.4893 22.3372C75.4893 22.0572 75.4093 21.8306 75.2493 21.6572C75.1027 21.4839 74.8293 21.3306 74.4293 21.1972C74.0293 21.0506 73.436 20.8972 72.6493 20.7372C71.516 20.4972 70.676 20.1306 70.1293 19.6372C69.596 19.1439 69.3293 18.4906 69.3293 17.6772C69.3293 17.1439 69.4893 16.6439 69.8093 16.1772C70.1293 15.6972 70.6027 15.3106 71.2293 15.0172C71.8693 14.7106 72.6293 14.5572 73.5093 14.5572C74.4027 14.5572 75.176 14.7039 75.8293 14.9972C76.4827 15.2772 76.976 15.6172 77.3093 16.0172C77.656 16.4039 77.8293 16.7506 77.8293 17.0572C77.8293 17.1772 77.7827 17.2839 77.6893 17.3772C77.6093 17.4572 77.5093 17.4972 77.3893 17.4972H75.9093C75.8027 17.4972 75.6893 17.4506 75.5693 17.3572C75.476 17.2906 75.3293 17.1639 75.1293 16.9772C74.9293 16.7906 74.696 16.6439 74.4293 16.5372C74.1627 16.4306 73.8493 16.3772 73.4893 16.3772C72.996 16.3772 72.6093 16.4839 72.3293 16.6972C72.0627 16.9106 71.9293 17.1906 71.9293 17.5372C71.9293 17.7906 71.996 17.9972 72.1293 18.1572C72.2627 18.3172 72.5227 18.4706 72.9093 18.6172C73.296 18.7639 73.876 18.9106 74.6493 19.0572C75.9293 19.3106 76.8427 19.7039 77.3893 20.2372C77.9493 20.7706 78.2293 21.4239 78.2293 22.1972C78.2293 23.1306 77.8227 23.8906 77.0093 24.4772C76.196 25.0639 75.056 25.3572 73.5893 25.3572ZM80.7939 25.1572C80.6605 25.1572 80.5472 25.1106 80.4539 25.0172C80.3605 24.9239 80.3139 24.8106 80.3139 24.6772V11.4372C80.3139 11.2906 80.3605 11.1772 80.4539 11.0972C80.5472 11.0039 80.6605 10.9572 80.7939 10.9572H82.4539C82.6005 10.9572 82.7139 11.0039 82.7939 11.0972C82.8872 11.1772 82.9339 11.2906 82.9339 11.4372V24.6772C82.9339 24.8106 82.8872 24.9239 82.7939 25.0172C82.7139 25.1106 82.6005 25.1572 82.4539 25.1572H80.7939ZM90.0668 25.3572C88.5868 25.3572 87.4068 24.9306 86.5268 24.0772C85.6602 23.2106 85.2002 21.9972 85.1468 20.4372L85.1268 19.9372L85.1468 19.4372C85.2135 17.9172 85.6802 16.7239 86.5468 15.8572C87.4268 14.9906 88.6002 14.5572 90.0668 14.5572C91.6402 14.5572 92.8535 15.0372 93.7068 15.9972C94.5735 16.9572 95.0068 18.2372 95.0068 19.8372V20.2572C95.0068 20.3906 94.9602 20.5039 94.8668 20.5972C94.7735 20.6906 94.6535 20.7372 94.5068 20.7372H87.8668V20.8972C87.8935 21.6306 88.0935 22.2506 88.4668 22.7572C88.8535 23.2506 89.3802 23.4972 90.0468 23.4972C90.8335 23.4972 91.4668 23.1906 91.9468 22.5772C92.0668 22.4306 92.1602 22.3372 92.2268 22.2972C92.3068 22.2572 92.4202 22.2372 92.5668 22.2372H94.2868C94.4068 22.2372 94.5068 22.2772 94.5868 22.3572C94.6802 22.4239 94.7268 22.5106 94.7268 22.6172C94.7268 22.9372 94.5335 23.3172 94.1468 23.7572C93.7735 24.1839 93.2335 24.5572 92.5268 24.8772C91.8202 25.1972 91.0002 25.3572 90.0668 25.3572ZM92.2868 19.0572V18.9972C92.2868 18.2106 92.0868 17.5772 91.6868 17.0972C91.3002 16.6172 90.7602 16.3772 90.0668 16.3772C89.3735 16.3772 88.8335 16.6172 88.4468 17.0972C88.0602 17.5772 87.8668 18.2106 87.8668 18.9972V19.0572H92.2868ZM101.07 25.3572C100.07 25.3572 99.2298 25.2106 98.5498 24.9172C97.8698 24.6106 97.3631 24.2572 97.0298 23.8572C96.7098 23.4439 96.5498 23.0906 96.5498 22.7972C96.5498 22.6639 96.5965 22.5572 96.6898 22.4772C96.7831 22.3972 96.8898 22.3572 97.0098 22.3572H98.5898C98.7098 22.3572 98.8098 22.4039 98.8898 22.4972C98.9431 22.5372 99.0831 22.6572 99.3098 22.8572C99.5365 23.0706 99.8031 23.2372 100.11 23.3572C100.416 23.4772 100.756 23.5372 101.13 23.5372C101.663 23.5372 102.103 23.4306 102.45 23.2172C102.796 23.0039 102.97 22.7106 102.97 22.3372C102.97 22.0572 102.89 21.8306 102.73 21.6572C102.583 21.4839 102.31 21.3306 101.91 21.1972C101.51 21.0506 100.916 20.8972 100.13 20.7372C98.9965 20.4972 98.1565 20.1306 97.6098 19.6372C97.0765 19.1439 96.8098 18.4906 96.8098 17.6772C96.8098 17.1439 96.9698 16.6439 97.2898 16.1772C97.6098 15.6972 98.0831 15.3106 98.7098 15.0172C99.3498 14.7106 100.11 14.5572 100.99 14.5572C101.883 14.5572 102.656 14.7039 103.31 14.9972C103.963 15.2772 104.456 15.6172 104.79 16.0172C105.136 16.4039 105.31 16.7506 105.31 17.0572C105.31 17.1772 105.263 17.2839 105.17 17.3772C105.09 17.4572 104.99 17.4972 104.87 17.4972H103.39C103.283 17.4972 103.17 17.4506 103.05 17.3572C102.956 17.2906 102.81 17.1639 102.61 16.9772C102.41 16.7906 102.176 16.6439 101.91 16.5372C101.643 16.4306 101.33 16.3772 100.97 16.3772C100.476 16.3772 100.09 16.4839 99.8098 16.6972C99.5431 16.9106 99.4098 17.1906 99.4098 17.5372C99.4098 17.7906 99.4765 17.9972 99.6098 18.1572C99.7431 18.3172 100.003 18.4706 100.39 18.6172C100.776 18.7639 101.356 18.9106 102.13 19.0572C103.41 19.3106 104.323 19.7039 104.87 20.2372C105.43 20.7706 105.71 21.4239 105.71 22.1972C105.71 23.1306 105.303 23.8906 104.49 24.4772C103.676 25.0639 102.536 25.3572 101.07 25.3572ZM111.854 25.1572C111.428 25.1572 111.154 24.9572 111.034 24.5572L106.954 11.7572L106.914 11.5772C106.914 11.4706 106.954 11.3772 107.034 11.2972C107.128 11.2039 107.234 11.1572 107.354 11.1572H109.834C110.021 11.1572 110.174 11.2106 110.294 11.3172C110.428 11.4239 110.514 11.5439 110.554 11.6772L113.394 20.9172L116.214 11.6772C116.254 11.5439 116.334 11.4239 116.454 11.3172C116.588 11.2106 116.748 11.1572 116.934 11.1572H119.434C119.541 11.1572 119.634 11.2039 119.714 11.2972C119.808 11.3772 119.854 11.4706 119.854 11.5772L119.814 11.7572L115.734 24.5572C115.614 24.9572 115.341 25.1572 114.914 25.1572H111.854ZM122.222 25.1572C122.088 25.1572 121.968 25.1106 121.862 25.0172C121.768 24.9106 121.722 24.7906 121.722 24.6572V11.6572C121.722 11.5106 121.768 11.3906 121.862 11.2972C121.968 11.2039 122.088 11.1572 122.222 11.1572H127.822C129.528 11.1572 130.868 11.5506 131.842 12.3372C132.828 13.1239 133.322 14.2706 133.322 15.7772C133.322 17.2706 132.835 18.3972 131.862 19.1572C130.888 19.9039 129.542 20.2772 127.822 20.2772H125.442V24.6572C125.442 24.8039 125.388 24.9239 125.282 25.0172C125.188 25.1106 125.068 25.1572 124.922 25.1572H122.222ZM127.722 17.5172C128.308 17.5172 128.768 17.3706 129.102 17.0772C129.435 16.7706 129.602 16.3239 129.602 15.7372C129.602 15.1906 129.442 14.7572 129.122 14.4372C128.815 14.1039 128.348 13.9372 127.722 13.9372H125.382V17.5172H127.722ZM135.737 25.1572C135.604 25.1572 135.484 25.1106 135.377 25.0172C135.284 24.9106 135.237 24.7906 135.237 24.6572V11.6572C135.237 11.5106 135.284 11.3906 135.377 11.2972C135.484 11.2039 135.604 11.1572 135.737 11.1572H137.857C138.19 11.1572 138.417 11.2839 138.537 11.5372L143.417 19.2172V11.6572C143.417 11.5106 143.464 11.3906 143.557 11.2972C143.664 11.2039 143.784 11.1572 143.917 11.1572H146.317C146.464 11.1572 146.584 11.2039 146.677 11.2972C146.77 11.3906 146.817 11.5106 146.817 11.6572V24.6372C146.817 24.7839 146.77 24.9106 146.677 25.0172C146.584 25.1106 146.464 25.1572 146.317 25.1572H144.177C143.884 25.1572 143.664 25.0306 143.517 24.7772L138.637 17.3772V24.6572C138.637 24.7906 138.59 24.9106 138.497 25.0172C138.404 25.1106 138.284 25.1572 138.137 25.1572H135.737Z" fill="#0B132A"/>
<path d="M31.3564 13.7393L31.3344 13.7174C31.3326 13.7162 31.3312 13.7145 31.3303 13.7126L17.618 0L3.90587 13.7123C3.90429 13.7139 3.90181 13.7171 3.90181 13.7171L3.87919 13.739C1.78241 15.8475 0.45059 18.5965 0.095454 21.5489C-0.259682 24.5013 0.382246 27.4877 1.91919 30.0334C3.45613 32.5791 5.79988 34.538 8.57788 35.5986C11.3559 36.6591 14.4087 36.7607 17.251 35.887C17.4901 35.8139 17.7458 35.8139 17.985 35.887C20.8271 36.7604 23.8797 36.6588 26.6575 35.598C29.4353 34.5373 31.7788 32.5785 33.3157 30.033C34.8525 27.4875 35.4945 24.5013 35.1395 21.549C34.7845 18.5968 33.4529 15.8479 31.3564 13.7393ZM8.78174 22.7817C8.71499 22.8485 8.66205 22.9278 8.62595 23.0149C8.58983 23.102 8.57124 23.1955 8.57126 23.2899C8.59566 25.71 9.27962 28.0776 10.5495 30.138C10.5784 30.1847 10.5917 30.2395 10.5876 30.2942C10.5835 30.3489 10.5622 30.4009 10.5267 30.4429C10.4913 30.4848 10.4435 30.5144 10.3901 30.5275C10.3368 30.5406 10.2807 30.5366 10.2298 30.5158C9.27516 30.1143 8.40787 29.5305 7.67649 28.7973C6.17765 27.2982 5.33502 25.2654 5.33366 23.1456C5.3323 21.0257 6.17232 18.9918 7.66925 17.4909L17.618 7.54302L27.5663 17.4909C29.0635 18.9917 29.9038 21.0255 29.9024 23.1456C29.9012 25.2654 29.0584 27.2982 27.5594 28.7973C26.828 29.5305 25.9608 30.1143 25.0063 30.5158C24.9553 30.5366 24.8992 30.5406 24.8459 30.5275C24.7926 30.5144 24.7448 30.4847 24.7092 30.4429C24.6738 30.4009 24.6524 30.3489 24.6483 30.294C24.6442 30.2393 24.6575 30.1846 24.6863 30.1378C25.9565 28.0776 26.6409 25.71 26.6656 23.2899C26.6656 23.1955 26.6469 23.102 26.6106 23.0147C26.5743 22.9274 26.5212 22.8483 26.4542 22.7815L21.7486 17.7903C21.7017 17.7512 21.6428 17.7298 21.5817 17.7298C21.5208 17.7298 21.4616 17.7512 21.4149 17.7903C21.368 17.8293 21.3365 17.8836 21.3255 17.9437C21.3145 18.0037 21.325 18.0655 21.3551 18.1186C23.1826 21.4258 21.6111 26.1762 18.9903 28.7973L18.9765 28.8111C18.6148 29.169 18.1264 29.3696 17.6177 29.3694C17.1088 29.3692 16.6206 29.1683 16.2592 28.8103L16.2465 28.7973C13.6247 26.1762 12.054 21.4263 13.8819 18.1193C13.9119 18.0662 13.9224 18.0044 13.9115 17.9444C13.9005 17.8844 13.8689 17.83 13.8221 17.791C13.7752 17.7519 13.7162 17.7305 13.6552 17.7305C13.5942 17.7305 13.5351 17.7519 13.4883 17.791L8.78174 22.7817Z" fill="#F53838"/>
</svg>
